<svg data-v-fde0c5aa="" xmlns="http://www.w3.org/2000/svg" viewBox="0 0 300 300" class="iconLeft"><!----><defs data-v-fde0c5aa=""><linearGradient data-v-fde0c5aa="" gradientTransform="rotate(25)" id="9a3b3210-e217-4563-9e07-3febd1c1b5c9" x1="0%" y1="0%" x2="100%" y2="0%"><stop data-v-fde0c5aa="" offset="0%" stop-color="#3616AC" stop-opacity="1"></stop><stop data-v-fde0c5aa="" offset="100%" stop-color="#E09BED" stop-opacity="1"></stop></linearGradient></defs><rect data-v-fde0c5aa="" fill="url(#9a3b3210-e217-4563-9e07-3febd1c1b5c9)" x="0" y="0" width="300px" height="300px" class="logo-background-square"></rect><defs data-v-fde0c5aa=""><!----></defs><g data-v-fde0c5aa="" id="2adad123-547b-4fa4-9db9-cdee43d51489" fill="#ffffff" transform="matrix(2.1955665079124427,0,0,2.1955665079124427,87.01130942896245,130.88759371613062)"><path d="M3.09 7.43L3.09 7.43Q2.42 7.43 2.06 7.69L2.06 7.69L2.06 7.69Q1.69 7.95 1.69 8.43L1.69 8.43L1.69 8.43Q1.69 8.88 1.91 9.10L1.91 9.10L1.91 9.10Q2.13 9.32 2.70 9.53L2.70 9.53L3.71 9.90L3.71 9.90Q4.61 10.21 4.94 10.62L4.94 10.62L4.94 10.62Q5.26 11.03 5.26 11.73L5.26 11.73L5.26 11.73Q5.26 12.73 4.60 13.29L4.60 13.29L4.60 13.29Q3.93 13.86 2.67 13.86L2.67 13.86L2.67 13.86Q2.18 13.86 1.62 13.76L1.62 13.76L1.62 13.76Q1.05 13.66 0.60 13.50L0.60 13.50L0.80 11.87L1.23 11.87L1.53 13.02L1.53 13.02Q2.11 13.19 2.74 13.19L2.74 13.19L2.74 13.19Q3.44 13.19 3.83 12.88L3.83 12.88L3.83 12.88Q4.21 12.57 4.21 11.94L4.21 11.94L4.21 11.94Q4.21 11.58 3.96 11.33L3.96 11.33L3.96 11.33Q3.70 11.09 3.04 10.85L3.04 10.85L2.16 10.54L2.16 10.54Q1.40 10.26 1.06 9.83L1.06 9.83L1.06 9.83Q0.71 9.39 0.71 8.69L0.71 8.69L0.71 8.69Q0.71 7.76 1.32 7.24L1.32 7.24L1.32 7.24Q1.93 6.72 3.14 6.72L3.14 6.72L3.14 6.72Q4.03 6.72 5.01 7.17L5.01 7.17L4.79 8.67L4.37 8.67L4.07 7.64L4.07 7.64Q3.89 7.56 3.60 7.50L3.60 7.50L3.60 7.50Q3.32 7.43 3.09 7.43L3.09 7.43ZM8.12 5.60L8.12 5.60Q7.78 5.60 7.53 5.37L7.53 5.37L7.53 5.37Q7.28 5.14 7.28 4.80L7.28 4.80L7.28 4.80Q7.28 4.45 7.53 4.21L7.53 4.21L7.53 4.21Q7.78 3.96 8.12 3.96L8.12 3.96L8.12 3.96Q8.46 3.96 8.71 4.21L8.71 4.21L8.71 4.21Q8.96 4.47 8.96 4.80L8.96 4.80L8.96 4.80Q8.96 5.14 8.71 5.37L8.71 5.37L8.71 5.37Q8.46 5.60 8.12 5.60L8.12 5.60ZM9.95 13.72L6.30 13.72L6.30 13.27L7.55 12.98L7.55 7.70L6.30 7.56L6.30 7.24L8.36 6.72L8.71 6.72L8.71 12.98L9.95 13.27L9.95 13.72ZM14.15 13.72L10.47 13.72L10.47 13.26L11.73 12.98L11.73 4.54L10.47 4.40L10.47 4.07L12.52 3.54L12.89 3.54L12.89 12.98L14.15 13.26L14.15 13.72ZM18.07 13.87L18.07 13.87Q16.51 13.87 15.71 12.97L15.71 12.97L15.71 12.97Q14.92 12.07 14.92 10.32L14.92 10.32L14.92 10.32Q14.92 8.57 15.69 7.64L15.69 7.64L15.69 7.64Q16.46 6.72 17.92 6.72L17.92 6.72L17.92 6.72Q19.26 6.72 19.91 7.36L19.91 7.36L19.91 7.36Q20.55 7.99 20.55 9.35L20.55 9.35L20.55 9.35Q20.55 9.52 20.52 10.05L20.52 10.05L16.21 10.05L16.21 10.50L16.21 10.50Q16.21 11.73 16.76 12.43L16.76 12.43L16.76 12.43Q17.30 13.13 18.27 13.13L18.27 13.13L18.27 13.13Q18.73 13.13 19.29 13.05L19.29 13.05L19.29 13.05Q19.85 12.96 20.37 12.82L20.37 12.82L20.45 13.26L20.45 13.26Q19.85 13.59 19.32 13.73L19.32 13.73L19.32 13.73Q18.79 13.87 18.07 13.87L18.07 13.87ZM16.24 9.56L19.29 9.42L19.29 9.10L19.29 9.10Q19.29 8.23 18.98 7.82L18.98 7.82L18.98 7.82Q18.68 7.41 18.00 7.41L18.00 7.41L18.00 7.41Q17.11 7.41 16.70 7.90L16.70 7.90L16.70 7.90Q16.30 8.40 16.24 9.56L16.24 9.56ZM23.83 7.28L23.83 7.28Q24.32 7.07 25.01 6.90L25.01 6.90L25.01 6.90Q25.70 6.72 26.33 6.72L26.33 6.72L26.33 6.72Q27.16 6.72 27.68 7.08L27.68 7.08L27.68 7.08Q28.20 7.45 28.20 8.25L28.20 8.25L28.20 12.98L29.46 13.33L29.46 13.72L25.89 13.72L25.89 13.33L27.03 12.98L27.03 8.48L27.03 8.48Q27.03 8.11 26.91 7.91L26.91 7.91L26.91 7.91Q26.80 7.71 26.50 7.64L26.50 7.64L26.50 7.64Q26.21 7.56 25.63 7.56L25.63 7.56L25.63 7.56Q25.19 7.56 24.70 7.62L24.70 7.62L24.70 7.62Q24.21 7.69 23.83 7.78L23.83 7.78L23.83 12.98L24.98 13.33L24.98 13.72L21.42 13.72L21.42 13.33L22.67 12.98L22.67 7.70L21.42 7.56L21.42 7.24L23.45 6.72L23.83 6.72L23.83 7.28ZM33.32 13.86L33.32 13.86Q31.78 13.86 31.04 12.88L31.04 12.88L31.04 12.88Q30.30 11.90 30.30 10.32L30.30 10.32L30.30 10.32Q30.30 8.69 31.03 7.71L31.03 7.71L31.03 7.71Q31.77 6.72 33.32 6.72L33.32 6.72L33.32 6.72Q33.95 6.72 34.46 6.83L34.46 6.83L34.46 6.83Q34.97 6.93 35.56 7.15L35.56 7.15L35.29 8.88L34.86 8.88L34.52 7.62L34.52 7.62Q33.95 7.43 33.33 7.43L33.33 7.43L33.33 7.43Q32.34 7.43 31.96 8.16L31.96 8.16L31.96 8.16Q31.58 8.88 31.58 10.28L31.58 10.28L31.58 10.28Q31.58 11.65 31.98 12.38L31.98 12.38L31.98 12.38Q32.37 13.10 33.39 13.10L33.39 13.10L33.39 13.10Q33.94 13.10 34.51 13.02L34.51 13.02L34.51 13.02Q35.08 12.94 35.50 12.80L35.50 12.80L35.59 13.24L35.59 13.24Q34.96 13.57 34.45 13.71L34.45 13.71L34.45 13.71Q33.94 13.86 33.32 13.86L33.32 13.86ZM39.56 13.87L39.56 13.87Q38.00 13.87 37.21 12.97L37.21 12.97L37.21 12.97Q36.41 12.07 36.41 10.32L36.41 10.32L36.41 10.32Q36.41 8.57 37.18 7.64L37.18 7.64L37.18 7.64Q37.95 6.72 39.41 6.72L39.41 6.72L39.41 6.72Q40.75 6.72 41.40 7.36L41.40 7.36L41.40 7.36Q42.04 7.99 42.04 9.35L42.04 9.35L42.04 9.35Q42.04 9.52 42.01 10.05L42.01 10.05L37.70 10.05L37.70 10.50L37.70 10.50Q37.70 11.73 38.25 12.43L38.25 12.43L38.25 12.43Q38.79 13.13 39.76 13.13L39.76 13.13L39.76 13.13Q40.22 13.13 40.78 13.05L40.78 13.05L40.78 13.05Q41.34 12.96 41.86 12.82L41.86 12.82L41.94 13.26L41.94 13.26Q41.34 13.59 40.81 13.73L40.81 13.73L40.81 13.73Q40.28 13.87 39.56 13.87L39.56 13.87ZM37.73 9.56L40.78 9.42L40.78 9.10L40.78 9.10Q40.78 8.23 40.47 7.82L40.47 7.82L40.47 7.82Q40.17 7.41 39.49 7.41L39.49 7.41L39.49 7.41Q38.60 7.41 38.19 7.90L38.19 7.90L38.19 7.90Q37.79 8.40 37.73 9.56L37.73 9.56ZM46.07 13.86L46.07 13.86Q44.53 13.86 43.79 12.88L43.79 12.88L43.79 12.88Q43.05 11.90 43.05 10.32L43.05 10.32L43.05 10.32Q43.05 8.69 43.79 7.71L43.79 7.71L43.79 7.71Q44.52 6.72 46.07 6.72L46.07 6.72L46.07 6.72Q46.70 6.72 47.22 6.83L47.22 6.83L47.22 6.83Q47.73 6.93 48.31 7.15L48.31 7.15L48.05 8.88L47.61 8.88L47.28 7.62L47.28 7.62Q46.70 7.43 46.09 7.43L46.09 7.43L46.09 7.43Q45.09 7.43 44.72 8.16L44.72 8.16L44.72 8.16Q44.34 8.88 44.34 10.28L44.34 10.28L44.34 10.28Q44.34 11.65 44.73 12.38L44.73 12.38L44.73 12.38Q45.12 13.10 46.14 13.10L46.14 13.10L46.14 13.10Q46.69 13.10 47.26 13.02L47.26 13.02L47.26 13.02Q47.84 12.94 48.26 12.80L48.26 12.80L48.34 13.24L48.34 13.24Q47.71 13.57 47.20 13.71L47.20 13.71L47.20 13.71Q46.69 13.86 46.07 13.86L46.07 13.86ZM56.74 13.55L56.74 13.55Q55.97 13.78 55.26 13.78L55.26 13.78L55.26 13.78Q54.96 13.78 54.69 13.59L54.69 13.59L54.69 13.59Q54.42 13.40 54.36 13.08L54.36 13.08L54.03 13.22L54.03 13.22Q53.31 13.52 52.77 13.69L52.77 13.69L52.77 13.69Q52.23 13.86 51.67 13.86L51.67 13.86L51.67 13.86Q50.83 13.86 50.46 13.38L50.46 13.38L50.46 13.38Q50.08 12.91 50.08 12.19L50.08 12.19L50.08 7.70L48.83 7.56L48.83 7.24L50.89 6.72L51.25 6.72L51.25 12.04L51.25 12.04Q51.25 12.54 51.48 12.77L51.48 12.77L51.48 12.77Q51.70 12.99 52.39 12.99L52.39 12.99L52.39 12.99Q52.74 12.99 53.28 12.86L53.28 12.86L53.28 12.86Q53.83 12.73 54.29 12.56L54.29 12.56L54.29 7.70L53.03 7.56L53.03 7.24L55.09 6.72L55.47 6.72L55.47 12.91L56.74 13.16L56.74 13.55ZM61.60 13.57L61.60 13.57Q61.21 13.68 60.48 13.76L60.48 13.76L60.48 13.76Q59.75 13.85 59.43 13.85L59.43 13.85L59.43 13.85Q58.84 13.85 58.59 13.52L58.59 13.52L58.59 13.52Q58.34 13.19 58.34 12.70L58.34 12.70L58.34 7.56L57.32 7.56L57.32 7.06L58.45 6.71L58.97 5.31L59.49 5.31L59.49 6.85L61.80 6.85L61.80 7.67L59.49 7.56L59.49 12.91L61.60 13.19L61.60 13.57ZM66.56 13.57L66.56 13.57Q66.16 13.68 65.44 13.76L65.44 13.76L65.44 13.76Q64.71 13.85 64.39 13.85L64.39 13.85L64.39 13.85Q63.80 13.85 63.55 13.52L63.55 13.52L63.55 13.52Q63.29 13.19 63.29 12.70L63.29 12.70L63.29 7.56L62.27 7.56L62.27 7.06L63.41 6.71L63.92 5.31L64.44 5.31L64.44 6.85L66.75 6.85L66.75 7.67L64.44 7.56L64.44 12.91L66.56 13.19L66.56 13.57ZM70.59 13.87L70.59 13.87Q69.02 13.87 68.23 12.97L68.23 12.97L68.23 12.97Q67.44 12.07 67.44 10.32L67.44 10.32L67.44 10.32Q67.44 8.57 68.21 7.64L68.21 7.64L68.21 7.64Q68.98 6.72 70.43 6.72L70.43 6.72L70.43 6.72Q71.78 6.72 72.42 7.36L72.42 7.36L72.42 7.36Q73.07 7.99 73.07 9.35L73.07 9.35L73.07 9.35Q73.07 9.52 73.04 10.05L73.04 10.05L68.73 10.05L68.73 10.50L68.73 10.50Q68.73 11.73 69.27 12.43L69.27 12.43L69.27 12.43Q69.82 13.13 70.78 13.13L70.78 13.13L70.78 13.13Q71.25 13.13 71.81 13.05L71.81 13.05L71.81 13.05Q72.37 12.96 72.88 12.82L72.88 12.82L72.97 13.26L72.97 13.26Q72.37 13.59 71.83 13.73L71.83 13.73L71.83 13.73Q71.30 13.87 70.59 13.87L70.59 13.87ZM68.75 9.56L71.81 9.42L71.81 9.10L71.81 9.10Q71.81 8.23 71.50 7.82L71.50 7.82L71.50 7.82Q71.19 7.41 70.52 7.41L70.52 7.41L70.52 7.41Q69.62 7.41 69.22 7.90L69.22 7.90L69.22 7.90Q68.81 8.40 68.75 9.56L68.75 9.56ZM77.83 7.62L77.83 7.62Q77.07 7.62 76.30 7.88L76.30 7.88L76.30 12.98L77.88 13.30L77.88 13.72L73.89 13.72L73.89 13.33L75.14 12.96L75.14 7.73L73.89 7.56L73.89 7.24L75.77 6.72L76.26 6.72L76.26 7.36L76.26 7.36Q76.75 7.06 77.33 6.87L77.33 6.87L77.33 6.87Q77.91 6.69 78.43 6.69L78.43 6.69L78.43 6.69Q78.67 6.69 78.79 6.71L78.79 6.71L78.58 8.72L78.12 8.72L77.83 7.62Z"></path></g><defs data-v-fde0c5aa=""><!----></defs><g data-v-fde0c5aa="" id="4f2ee158-d53f-483d-b527-3b1d050b46cb" stroke="none" fill="#ffffff" transform="matrix(0.35418078196015496,0,0,0.35418078196015496,45.05292096891625,137.53558162466376)"><path d="M85.48-2.734c-10.806-5.25-24.195-3.398-33.169 5.576L33.759 21.395l-6.86-6.859c2.264-7.242.534-15.462-5.204-21.201-8.228-8.226-21.565-8.226-29.792 0-8.226 8.227-8.226 21.566 0 29.792 5.736 5.737 13.958 7.469 21.2 5.205l6.859 6.861-6.859 6.859c-7.242-2.263-15.463-.532-21.2 5.205-8.226 8.228-8.226 21.564 0 29.791 8.228 8.229 21.565 8.227 29.792 0 5.737-5.735 7.467-13.957 5.204-21.199l33.204-33.202L85.48-2.734zM15.169 16.602c-4.625 4.622-12.117 4.623-16.739.001-4.624-4.623-4.622-12.119 0-16.741 4.622-4.621 12.117-4.623 16.74 0 4.622 4.621 4.62 12.117-.001 16.74zm.001 53.92c-4.623 4.622-12.118 4.622-16.74 0-4.622-4.623-4.624-12.116 0-16.741 4.622-4.622 12.114-4.619 16.739.002 4.621 4.623 4.623 12.116.001 16.739zm17.594-31.853a3.478 3.478 0 1 1 .004-6.956 3.478 3.478 0 0 1-.004 6.956zM60.104 46.924l-6.177-6.177-13.796 13.798 12.182 12.182c8.973 8.975 22.364 10.828 33.168 5.576L60.104 46.924z"></path></g><!----></svg>